{"title":"Eden Lake 2008 DVDRip Xvid LKRG","uid":6177788,"size":1209574671,"categoryP":"video","categoryS":"movies","magnet":"?xt=urn:btih:3469ea06de5c106c650a247e1ab4be72405e78ec&amp;dn=Eden+Lake+2008+DVDRip+Xvid+LKRG&amp;tr=udp%3A%2F%2Ftracker.openbittorrent.com%3A80&amp;tr=udp%3A%2F%2Fopen.demonii.com%3A1337&amp;tr=udp%3A%2F%2Ftracker.coppersurfer.tk%3A6969&amp;tr=udp%3A%2F%2Fexodus.desync.com%3A6969","seeders":3,"leechers":0,"uploader":"hiest","files":-1,"time":1297833471,"description":"\n ######           ######                       \n #     # #  ####  #     # ###### #####  #    # \n #     # # #    # #     # #      #    # ##  ## \n ######  # #      ######  #####  #    # # ## # \n #     # # #  ### #       #      #####  #    # \n #     # # #    # #       #      #   #  #    # \n ######  #  ####  #       ###### #    # #    # \n                                               \n\n\nPlot\n\nRefusing to let anything spoil their romantic weekend break, a young couple\nconfront a gang of loutish youths with terrifyingly brutal consequences.\n\n\nGeneral\nComplete name : Eden Lake 2008 DVDRip Xvid BigPerm LKRGEL_LKRG.avi\nFormat : AVI\nFormat/Info : Audio Video Interleave\nFormat profile : OpenDML\nFile size : 1.13 GiB\nDuration : 1h 31mn\nOverall bit rate : 1 769 Kbps\n\nVideo\nID : 0\nFormat : MPEG-4 Visual\nFormat profile : Advanced Simple@L5\nFormat settings, BVOP : Yes\nFormat settings, QPel : No\nFormat settings, GMC : No warppoints\nFormat settings, Matrix : Default (H.263)\nCodec ID : XVID\nCodec ID/Hint : XviD\nDuration : 1h 31mn\nBit rate : 1 315 Kbps\nWidth : 704 pixels\nHeight : 396 pixels\nDisplay aspect ratio : 16:9\nFrame rate : 23.976 fps\nColor space : YUV\nChroma subsampling : 4:2:0\nBit depth : 8 bits\nScan type : Progressive\nCompression mode : Lossy\nBits/(Pixel*Frame) : 0.197\nStream size : 857 MiB (74%)\nWriting library : XviD 1.2.1 (UTC 2008-12-04)\n\nAudio\nID : 1\nFormat : AC-3\nFormat/Info : Audio Coding 3\nMode extension : CM (complete main)\nCodec ID : 2000\nDuration : 1h 31mn\nBit rate mode : Constant\nBit rate : 448 Kbps\nChannel(s) : 6 channels\nChannel positions : Front: L C R, Side: L R, LFE\nSampling rate : 48.0 KHz\nBit depth : 16 bits\nCompression mode : Lossy\nVideo delay : 42ms\nStream size : 292 MiB (25%)\nAlignment : Split accross interleaves\nInterleave, duration : 500 ms (11.99 video frames)\nInterleave, preload duration : 500 ms\nLanguage : English\n\n\n\n\n\n================================== &lt;a href=&quot;\nhttp://thepiratebay.se/user/hiest&quot; rel=&quot;nofollow&quot; target=&quot;_NEW&quot;&gt;\nhttp://thepiratebay.se/user/hiest&lt;/a&gt;\n==================================\n\n\n\n\n\nScreen Shots:\n &lt;a href=&quot;\nhttp://leetleech.org/images/67543805579467135067.png&quot; rel=&quot;nofollow&quot; target=&quot;_NEW&quot;&gt;\nhttp://leetleech.org/images/67543805579467135067.png&lt;/a&gt;\n &lt;a href=&quot;\nhttp://leetleech.org/images/52111356116486961924.png&quot; rel=&quot;nofollow&quot; target=&quot;_NEW&quot;&gt;\nhttp://leetleech.org/images/52111356116486961924.png&lt;/a&gt;\n &lt;a href=&quot;\nhttp://leetleech.org/images/03976835420736857611.png&quot; rel=&quot;nofollow&quot; target=&quot;_NEW&quot;&gt;\nhttp://leetleech.org/images/03976835420736857611.png&lt;/a&gt;\n &lt;a href=&quot;\nhttp://leetleech.org/images/44824389791964633014.png&quot; rel=&quot;nofollow&quot; target=&quot;_NEW&quot;&gt;\nhttp://leetleech.org/images/44824389791964633014.png&lt;/a&gt;\n\n\n ######           ######                       \n #     # #  ####  #     # ###### #####  #    # \n #     # # #    # #     # #      #    # ##  ## \n ######  # #      ######  #####  #    # # ## # \n #     # # #  ### #       #      #####  #    # \n #     # # #    # #       #      #   #  #    # \n ######  #  ####  #       ###### #    # #    # \n                                               \n","torrent":{"xt":"urn:btih:3469ea06de5c106c650a247e1ab4be72405e78ec","amp;dn":"Eden+Lake+2008+DVDRip+Xvid+LKRG","amp;tr":["udp%3A%2F%2Ftracker.openbittorrent.com%3A80","udp%3A%2F%2Fopen.demonii.com%3A1337","udp%3A%2F%2Ftracker.coppersurfer.tk%3A6969","udp%3A%2F%2Fexodus.desync.com%3A6969"],"infoHash":"3469ea06de5c106c650a247e1ab4be72405e78ec","infoHashBuffer":{"type":"Buffer","data":[52,105,234,6,222,92,16,108,101,10,36,126,26,180,190,114,64,94,120,236]},"announce":[],"urlList":[]}}